<svg xmlns="http://www.w3.org/2000/svg" viewBox="0 0 140 140">
  <rect width="140" height="140" rx="32" fill="#241B3D"/>
  <path d="M45,50 C45,38 55,32 65,36 C70,30 82,30 87,38 C97,36 105,46 102,56 C110,62 108,76 98,80 C100,90 90,98 80,94 C76,102 62,102 58,94 C46,98 36,88 40,78 C32,72 34,60 45,50 Z" fill="none" stroke="#CECBF6" stroke-width="2.5"/>
  <line x1="70" y1="66" x2="55" y2="50" stroke="#CECBF6" stroke-width="1.2" opacity="0.7"/>
  <line x1="70" y1="66" x2="82" y2="46" stroke="#CECBF6" stroke-width="1.2" opacity="0.7"/>
  <line x1="70" y1="66" x2="92" y2="66" stroke="#CECBF6" stroke-width="1.2" opacity="0.6"/>
  <line x1="70" y1="66" x2="52" y2="76" stroke="#CECBF6" stroke-width="1.2" opacity="0.6"/>
  <line x1="70" y1="66" x2="80" y2="86" stroke="#CECBF6" stroke-width="1.2" opacity="0.6"/>
  <line x1="70" y1="66" x2="60" y2="90" stroke="#CECBF6" stroke-width="1.2" opacity="0.5"/>
  <circle cx="70" cy="66" r="6" fill="#F583B4"/>
  <circle cx="55" cy="50" r="3" fill="#CECBF6"/>
  <circle cx="82" cy="46" r="3" fill="#CECBF6"/>
  <circle cx="92" cy="66" r="3" fill="#CECBF6"/>
  <circle cx="52" cy="76" r="3" fill="#CECBF6"/>
  <circle cx="80" cy="86" r="3" fill="#CECBF6"/>
  <circle cx="60" cy="90" r="3" fill="#CECBF6"/>
</svg>
